<svg width="63" height="120" viewBox="0 0 63 120" fill="none" xmlns="http://www.w3.org/2000/svg">
<path d="M32.2647 60.9865L17.3529 108.744L51.437 63.2607L32.2647 60.9865Z" fill="url(#paint0_linear_22_3)" stroke="url(#paint1_linear_22_3)" stroke-width="4"/>
<path d="M29.0218 58.2679L43.9336 10.5104L9.84954 55.9937L29.0218 58.2679Z" fill="url(#paint2_linear_22_3)" stroke="url(#paint3_linear_22_3)" stroke-width="4"/>
<path d="M3.0719 64.0214L21.2622 40.695C21.1254 47.1701 26.3465 52.6286 32.9663 52.6286H59.9975L43.1899 75.0071C43.6167 69.3115 39.1334 64.0214 32.9663 64.0214H3.0719Z" fill="url(#paint4_linear_22_3)" stroke="url(#paint5_linear_22_3)" stroke-width="3"/>
<defs>
<linearGradient id="paint0_linear_22_3" x1="33.5471" y1="119.254" x2="33.5471" y2="58.8048" gradientUnits="userSpaceOnUse">
<stop stop-color="#CFC3C3"/>
<stop offset="1" stop-color="#373131"/>
</linearGradient>
<linearGradient id="paint1_linear_22_3" x1="35.6591" y1="120.583" x2="35.6591" y2="58.8048" gradientUnits="userSpaceOnUse">
<stop stop-color="#545869"/>
<stop offset="1" stop-color="#3A4EB3"/>
</linearGradient>
<linearGradient id="paint2_linear_22_3" x1="27.7394" y1="0" x2="27.7394" y2="60.4497" gradientUnits="userSpaceOnUse">
<stop stop-color="#CFC3C3"/>
<stop offset="1" stop-color="#373131"/>
</linearGradient>
<linearGradient id="paint3_linear_22_3" x1="25.6274" y1="-1.32814" x2="25.6274" y2="60.4497" gradientUnits="userSpaceOnUse">
<stop stop-color="#545869"/>
<stop offset="1" stop-color="#3A4EB3"/>
</linearGradient>
<linearGradient id="paint4_linear_22_3" x1="34.5842" y1="34.5769" x2="34.5842" y2="83.9921" gradientUnits="userSpaceOnUse">
<stop stop-color="#545869"/>
<stop offset="1" stop-color="#3A4EB3"/>
</linearGradient>
<linearGradient id="paint5_linear_22_3" x1="31.5" y1="35.6393" x2="31.5" y2="83.9921" gradientUnits="userSpaceOnUse">
<stop stop-color="#CFC3C3"/>
<stop offset="1" stop-color="#373131"/>
</linearGradient>
</defs>
</svg>
